<?xml version="1.0" encoding="UTF-8"?>
<svg xmlns="http://www.w3.org/2000/svg" viewBox="0 0 750 400" width="750" height="400">
  <title>Accountability — On the Record</title>
  <defs>
    <radialGradient id="al-glow" cx="50%" cy="50%" r="45%">
      <stop offset="0%" stop-color="#c8a050" stop-opacity="0.15"/>
      <stop offset="100%" stop-color="#c8a050" stop-opacity="0"/>
    </radialGradient>
    <linearGradient id="al-page" x1="0" y1="0" x2="0" y2="1">
      <stop offset="0%" stop-color="#d8c880"/>
      <stop offset="100%" stop-color="#b8a860"/>
    </linearGradient>
  </defs>

  <!-- Background -->
  <rect width="750" height="400" fill="#0d0800"/>
  <rect width="750" height="400" fill="none" stroke="#c8a050" stroke-width="3"/>
  <rect x="6" y="6" width="738" height="388" fill="none" stroke="#c8a050" stroke-width="0.5" opacity="0.25"/>

  <!-- Top band -->
  <rect x="0" y="0" width="750" height="44" fill="#3a1a00"/>
  <text x="375" y="29" font-family="serif" font-size="28" font-weight="bold" fill="#c8a050" text-anchor="middle" letter-spacing="7">ON THE RECORD</text>

  <!-- Bottom band -->
  <rect x="0" y="356" width="750" height="44" fill="#3a1a00"/>
  <text x="375" y="380" font-family="serif" font-size="13" fill="#c8a050" text-anchor="middle" letter-spacing="5" opacity="0.8">IF IT'S NOT COMMITTED — IT DIDN'T HAPPEN</text>

  <!-- Desk surface suggestion -->
  <rect x="0" y="320" width="750" height="40" fill="#1a0a00" opacity="0.6"/>

  <!-- Center glow -->
  <ellipse cx="375" cy="195" rx="280" ry="130" fill="url(#al-glow)"/>

  <!-- Open ledger book -->
  <!-- Book shadow/base -->
  <rect x="80" y="66" width="590" height="270" fill="#0a0500" rx="4"/>

  <!-- Left page -->
  <rect x="88" y="72" width="282" height="258" fill="url(#al-page)" rx="3"/>
  <!-- Left page ruled lines (hand-written entries) -->
  <g stroke="#8b7820" stroke-width="0.8" opacity="0.6">
    <line x1="102" y1="106" x2="356" y2="106"/>
    <line x1="102" y1="122" x2="356" y2="122"/>
    <line x1="102" y1="138" x2="356" y2="138"/>
    <line x1="102" y1="154" x2="356" y2="154"/>
    <line x1="102" y1="170" x2="356" y2="170"/>
    <line x1="102" y1="186" x2="356" y2="186"/>
    <line x1="102" y1="202" x2="356" y2="202"/>
    <line x1="102" y1="218" x2="356" y2="218"/>
    <line x1="102" y1="234" x2="356" y2="234"/>
    <line x1="102" y1="250" x2="356" y2="250"/>
    <line x1="102" y1="266" x2="356" y2="266"/>
    <line x1="102" y1="282" x2="356" y2="282"/>
    <line x1="102" y1="298" x2="356" y2="298"/>
  </g>
  <!-- Red margin line -->
  <line x1="120" y1="80" x2="120" y2="322" stroke="#c83030" stroke-width="1" opacity="0.5"/>
  <!-- Handwritten-looking marks (just short zigzag lines) -->
  <g stroke="#3a2000" stroke-width="1.2" opacity="0.7" fill="none">
    <path d="M 126,106 L 160,106 L 170,106 L 200,106 L 240,106"/>
    <path d="M 126,122 L 180,122 L 220,122 L 280,122 L 310,122"/>
    <path d="M 126,138 L 150,138 L 190,138"/>
    <path d="M 126,154 L 200,154 L 250,154 L 310,154 L 340,154"/>
    <path d="M 126,170 L 170,170 L 210,170 L 260,170"/>
    <path d="M 126,186 L 156,186 L 196,186 L 226,186 L 280,186"/>
    <!-- Date column -->
    <path d="M 126,202 L 148,202"/>
    <path d="M 126,218 L 148,218"/>
    <path d="M 126,234 L 148,234"/>
  </g>
  <!-- Column header separator -->
  <line x1="102" y1="94" x2="356" y2="94" stroke="#3a2000" stroke-width="1.5"/>
  <text x="130" y="90" font-family="serif" font-size="9" fill="#3a2000" opacity="0.8">DATE</text>
  <text x="175" y="90" font-family="serif" font-size="9" fill="#3a2000" opacity="0.8">AGENT</text>
  <text x="235" y="90" font-family="serif" font-size="9" fill="#3a2000" opacity="0.8">EVENT</text>
  <text x="305" y="90" font-family="serif" font-size="9" fill="#3a2000" opacity="0.8">MALUS</text>
  <!-- Red entries on some rows -->
  <path d="M 126,250 L 350,250" stroke="#8b0000" stroke-width="1.5" opacity="0.8"/>
  <path d="M 126,266 L 320,266" stroke="#8b0000" stroke-width="1" opacity="0.6"/>
  <!-- Page number -->
  <text x="229" y="316" font-family="serif" font-size="10" fill="#3a2000" text-anchor="middle" opacity="0.6">— 47 —</text>

  <!-- Center spine shadow -->
  <rect x="366" y="72" width="16" height="258" fill="#050300" opacity="0.8"/>
  <line x1="374" y1="72" x2="374" y2="330" stroke="#3a1a00" stroke-width="1"/>

  <!-- Right page -->
  <rect x="382" y="72" width="282" height="258" fill="url(#al-page)" rx="3"/>
  <!-- Right page ruled lines -->
  <g stroke="#8b7820" stroke-width="0.8" opacity="0.6">
    <line x1="396" y1="106" x2="650" y2="106"/>
    <line x1="396" y1="122" x2="650" y2="122"/>
    <line x1="396" y1="138" x2="650" y2="138"/>
    <line x1="396" y1="154" x2="650" y2="154"/>
    <line x1="396" y1="170" x2="650" y2="170"/>
    <line x1="396" y1="186" x2="650" y2="186"/>
    <line x1="396" y1="202" x2="650" y2="202"/>
    <line x1="396" y1="218" x2="650" y2="218"/>
    <line x1="396" y1="234" x2="650" y2="234"/>
    <line x1="396" y1="250" x2="650" y2="250"/>
    <line x1="396" y1="266" x2="650" y2="266"/>
    <line x1="396" y1="282" x2="650" y2="282"/>
    <line x1="396" y1="298" x2="650" y2="298"/>
  </g>
  <line x1="414" y1="80" x2="414" y2="322" stroke="#c83030" stroke-width="1" opacity="0.5"/>
  <!-- Some entries on right page -->
  <g stroke="#3a2000" stroke-width="1.2" opacity="0.7" fill="none">
    <path d="M 420,106 L 460,106 L 500,106 L 560,106"/>
    <path d="M 420,122 L 470,122 L 520,122"/>
    <path d="M 420,138 L 490,138 L 540,138 L 600,138"/>
    <path d="M 420,154 L 455,154 L 495,154"/>
    <path d="M 420,170 L 480,170 L 530,170 L 600,170"/>
  </g>
  <line x1="396" y1="94" x2="650" y2="94" stroke="#3a2000" stroke-width="1.5"/>
  <!-- MALUS LEDGER stamp on right page, angled -->
  <g transform="translate(520, 220) rotate(-15)">
    <rect x="-72" y="-18" width="144" height="36" fill="none" stroke="#8b0000" stroke-width="3" rx="3"/>
    <text x="0" y="8" font-family="serif" font-size="22" font-weight="bold" fill="#8b0000" text-anchor="middle" letter-spacing="3" opacity="0.7">MALUS LEDGER</text>
  </g>
  <text x="516" y="316" font-family="serif" font-size="10" fill="#3a2000" text-anchor="middle" opacity="0.6">— 48 —</text>

  <!-- Quill pen across the book -->
  <!-- Quill shaft -->
  <path d="M 150,340 Q 350,290 580,120" stroke="#8b6010" stroke-width="3" fill="none"/>
  <!-- Quill feather -->
  <path d="M 580,120 Q 600,100 590,110 Q 620,80 600,95 Q 630,60 610,80 Q 640,45 615,68 Q 645,32 615,60 Q 620,20 605,50 Q 610,10 597,42 Q 600,5 588,40 L 575,115 Z" fill="#d8c880" opacity="0.8"/>
  <!-- Quill nib -->
  <path d="M 150,340 L 142,350 L 155,342 Z" fill="#3a2000"/>

</svg>
