<?xml version="1.0" encoding="UTF-8"?>
<svg xmlns="http://www.w3.org/2000/svg" viewBox="0 0 750 440" width="750" height="440">
  <title>CLI Reference — Quick Reference Card</title>
  <defs>
    <linearGradient id="cr-uniform" x1="0" y1="0" x2="0" y2="1">
      <stop offset="0%" stop-color="#2a2a1a"/>
      <stop offset="100%" stop-color="#1a1a0a"/>
    </linearGradient>
    <linearGradient id="cr-card" x1="0" y1="0" x2="0" y2="1">
      <stop offset="0%" stop-color="#d8c880"/>
      <stop offset="100%" stop-color="#b8a860"/>
    </linearGradient>
  </defs>

  <!-- Background — olive uniform fabric -->
  <rect width="750" height="440" fill="url(#cr-uniform)"/>
  <rect width="750" height="440" fill="none" stroke="#c8a050" stroke-width="3"/>
  <rect x="6" y="6" width="738" height="428" fill="none" stroke="#c8a050" stroke-width="0.5" opacity="0.25"/>

  <!-- Subtle fabric texture -->
  <rect width="750" height="440" fill="none" stroke="#3a3a2a" stroke-width="1" opacity="0.15"/>

  <!-- Top band -->
  <rect x="0" y="0" width="750" height="44" fill="#3a1a00"/>
  <text x="375" y="29" font-family="serif" font-size="26" font-weight="bold" fill="#c8a050" text-anchor="middle" letter-spacing="7">QUICK REFERENCE CARD</text>

  <!-- Bottom band -->
  <rect x="0" y="396" width="750" height="44" fill="#3a1a00"/>
  <text x="375" y="420" font-family="serif" font-size="13" fill="#c8a050" text-anchor="middle" letter-spacing="5" opacity="0.8">FM 1-01 · REV 1.0 · ARMIES CLI</text>

  <!-- Breast pocket outline on uniform -->
  <rect x="180" y="68" width="390" height="310" fill="#242414" rx="4" stroke="#4a4a2a" stroke-width="2"/>
  <!-- Pocket flap -->
  <path d="M 180,68 Q 375,52 570,68 L 570,98 Q 375,112 180,98 Z" fill="#2e2e1e" stroke="#4a4a2a" stroke-width="1.5"/>
  <!-- Button on pocket flap -->
  <circle cx="375" cy="83" r="8" fill="#4a3a10" stroke="#8b7020" stroke-width="1.5"/>
  <circle cx="375" cy="83" r="4" fill="none" stroke="#8b7020" stroke-width="1"/>
  <!-- Button holes -->
  <line x1="373" y1="81" x2="373" y2="85" stroke="#3a2800" stroke-width="1"/>
  <line x1="377" y1="81" x2="377" y2="85" stroke="#3a2800" stroke-width="1"/>

  <!-- Field card sticking out of pocket -->
  <rect x="230" y="88" width="290" height="270" fill="url(#cr-card)" rx="3" stroke="#8b7820" stroke-width="1.5"/>

  <!-- Card header -->
  <rect x="230" y="88" width="290" height="22" fill="#5a4800" rx="3"/>
  <text x="375" y="103" font-family="monospace" font-size="10" fill="#d8c880" text-anchor="middle" letter-spacing="2">ARMIES · FIELD CARD</text>

  <!-- Card vertical divider -->
  <line x1="375" y1="118" x2="375" y2="348" stroke="#8b7820" stroke-width="0.8" opacity="0.6"/>

  <!-- LEFT COLUMN: command names -->
  <text x="240" y="130" font-family="monospace" font-size="11" fill="#5a4000" font-weight="bold" letter-spacing="2">COMMAND</text>
  <line x1="234" y1="135" x2="369" y2="135" stroke="#8b7820" stroke-width="0.8"/>
  <g font-family="monospace" font-size="14" fill="#3a2000">
    <text x="240" y="156">$ roster</text>
    <text x="240" y="178">$ spawn</text>
    <text x="240" y="200">$ record</text>
    <text x="240" y="222">$ eligible</text>
    <text x="240" y="244">$ init</text>
    <text x="240" y="266">$ sync</text>
    <text x="240" y="288">$ research</text>
  </g>

  <!-- RIGHT COLUMN: one-word purposes -->
  <text x="384" y="130" font-family="monospace" font-size="11" fill="#5a4000" font-weight="bold" letter-spacing="2">PURPOSE</text>
  <line x1="379" y1="135" x2="512" y2="135" stroke="#8b7820" stroke-width="0.8"/>
  <g font-family="monospace" font-size="14" fill="#3a2000">
    <text x="384" y="156">list agents</text>
    <text x="384" y="178">deploy agent</text>
    <text x="384" y="200">log service</text>
    <text x="384" y="222">check gates</text>
    <text x="384" y="244">bootstrap</text>
    <text x="384" y="266">git sync</text>
    <text x="384" y="288">draft profile</text>
  </g>

  <!-- Card footer -->
  <line x1="234" y1="300" x2="512" y2="300" stroke="#8b7820" stroke-width="0.8" opacity="0.6"/>
  <text x="375" y="316" font-family="monospace" font-size="9" fill="#5a4000" text-anchor="middle" opacity="0.8">~/.armies/profiles/ · git commit required</text>
  <text x="375" y="332" font-family="monospace" font-size="10" fill="#8b0000" text-anchor="middle" font-weight="bold">IF NOT COMMITTED — DIDN'T HAPPEN</text>

  <!-- Card corner fold -->
  <path d="M 510,88 L 520,88 L 520,98 Z" fill="#c0a850" opacity="0.6"/>

  <!-- Decorative pen clipped to pocket edge -->
  <rect x="548" y="92" width="8" height="120" rx="4" fill="#3a2800"/>
  <rect x="546" y="88" width="12" height="14" rx="3" fill="#c8a050"/>
  <polygon points="552,212 548,226 556,226" fill="#1a1000"/>

</svg>
