<?xml version="1.0" encoding="UTF-8"?>
<svg xmlns="http://www.w3.org/2000/svg" viewBox="0 0 750 420" width="750" height="420">
  <title>Creating Profiles — Build Your General</title>
  <defs>
    <radialGradient id="cp-light" cx="50%" cy="45%" r="45%">
      <stop offset="0%" stop-color="#c8a050" stop-opacity="0.2"/>
      <stop offset="100%" stop-color="#c8a050" stop-opacity="0"/>
    </radialGradient>
    <linearGradient id="cp-bench" x1="0" y1="0" x2="0" y2="1">
      <stop offset="0%" stop-color="#1a0f00"/>
      <stop offset="100%" stop-color="#0a0600"/>
    </linearGradient>
    <linearGradient id="cp-paper" x1="0" y1="0" x2="0" y2="1">
      <stop offset="0%" stop-color="#d8c880"/>
      <stop offset="100%" stop-color="#c0b060"/>
    </linearGradient>
  </defs>

  <!-- Background — workbench -->
  <rect width="750" height="420" fill="url(#cp-bench)"/>
  <rect width="750" height="420" fill="none" stroke="#c8a050" stroke-width="3"/>
  <rect x="6" y="6" width="738" height="408" fill="none" stroke="#c8a050" stroke-width="0.5" opacity="0.25"/>

  <!-- Top band -->
  <rect x="0" y="0" width="750" height="44" fill="#3a1a00"/>
  <text x="375" y="29" font-family="serif" font-size="28" font-weight="bold" fill="#c8a050" text-anchor="middle" letter-spacing="7">BUILD YOUR GENERAL</text>

  <!-- Bottom band -->
  <rect x="0" y="376" width="750" height="44" fill="#3a1a00"/>
  <text x="375" y="400" font-family="serif" font-size="13" fill="#c8a050" text-anchor="middle" letter-spacing="5" opacity="0.8">PERSONA · ROLE · FAILURE MODE · ACCOUNTABILITY</text>

  <!-- Workbench surface glow -->
  <ellipse cx="375" cy="210" rx="300" ry="130" fill="url(#cp-light)"/>

  <!-- Main document/profile sheet — center, wider to prevent clipping -->
  <rect x="230" y="68" width="300" height="300" fill="url(#cp-paper)" rx="3" stroke="#8b7820" stroke-width="1.5"/>
  <!-- Document ruled lines -->
  <g stroke="#8b7820" stroke-width="0.8" opacity="0.5">
    <line x1="248" y1="100" x2="512" y2="100"/>
    <line x1="248" y1="118" x2="512" y2="118"/>
    <line x1="248" y1="136" x2="512" y2="136"/>
    <line x1="248" y1="154" x2="512" y2="154"/>
    <line x1="248" y1="172" x2="512" y2="172"/>
    <line x1="248" y1="190" x2="512" y2="190"/>
    <line x1="248" y1="208" x2="512" y2="208"/>
    <line x1="248" y1="226" x2="512" y2="226"/>
    <line x1="248" y1="244" x2="512" y2="244"/>
    <line x1="248" y1="262" x2="512" y2="262"/>
    <line x1="248" y1="280" x2="512" y2="280"/>
    <line x1="248" y1="298" x2="512" y2="298"/>
    <line x1="248" y1="316" x2="512" y2="316"/>
    <line x1="248" y1="358" x2="512" y2="358"/>
  </g>
  <!-- Document header area -->
  <rect x="230" y="68" width="300" height="24" fill="#5a4800" rx="3"/>
  <text x="380" y="84" font-family="monospace" font-size="10" fill="#d8c880" text-anchor="middle" letter-spacing="2">--- PROFILE FRONTMATTER ---</text>
  <!-- YAML-like entries (decorative) -->
  <g font-family="monospace" font-size="9" fill="#3a2800" opacity="0.8">
    <text x="248" y="99">name: grace-hopper</text>
    <text x="248" y="117">display_name: "Admiral Grace Hopper"</text>
    <text x="248" y="135">roles:</text>
    <text x="256" y="153">  primary: implementer</text>
    <text x="248" y="171">xp: 0</text>
    <text x="248" y="189">rank: "Private"</text>
  </g>
  <!-- Section divider on document -->
  <line x1="240" y1="200" x2="520" y2="200" stroke="#5a4800" stroke-width="1.5" opacity="0.8"/>
  <text x="380" y="215" font-family="monospace" font-size="8" fill="#5a4800" text-anchor="middle" opacity="0.8">## Base Persona</text>
  <!-- More lines below section break -->
  <g stroke="#8b7820" stroke-width="0.8" opacity="0.4">
    <line x1="258" y1="225" x2="490" y2="225"/>
    <line x1="258" y1="240" x2="480" y2="240"/>
    <line x1="258" y1="255" x2="488" y2="255"/>
    <line x1="258" y1="270" x2="470" y2="270"/>
    <line x1="258" y1="285" x2="490" y2="285"/>
    <line x1="258" y1="300" x2="478" y2="300"/>
  </g>

  <!-- Tools on bench -->

  <!-- Compass — upper left -->
  <g transform="translate(148, 150)">
    <!-- Compass body -->
    <line x1="0" y1="-50" x2="-20" y2="30" stroke="#8b6010" stroke-width="3" stroke-linecap="round"/>
    <line x1="0" y1="-50" x2="20" y2="30" stroke="#8b6010" stroke-width="3" stroke-linecap="round"/>
    <!-- Pivot point -->
    <circle cx="0" cy="-50" r="5" fill="#c8a050"/>
    <!-- Pencil tip left leg -->
    <polygon points="-20,30 -24,44 -16,30" fill="#c8a050"/>
    <!-- Pin tip right leg -->
    <polygon points="20,30 17,44 23,30" fill="#c8a050"/>
    <!-- Arc drawn by compass -->
    <path d="M -30,60 Q 0,20 30,60" stroke="#c8a050" stroke-width="1" fill="none" opacity="0.5" stroke-dasharray="3,2"/>
  </g>

  <!-- Straight ruler — bottom left, angled -->
  <g transform="translate(110, 280) rotate(-20)">
    <rect x="-5" y="-90" width="30" height="180" fill="#8b6010" rx="2"/>
    <rect x="-3" y="-88" width="26" height="176" fill="#a07828" rx="1"/>
    <!-- Ruler markings -->
    <g stroke="#5a3800" stroke-width="0.8">
      <line x1="0" y1="-80" x2="0" y2="-72"/>
      <line x1="0" y1="-60" x2="0" y2="-52"/>
      <line x1="0" y1="-40" x2="0" y2="-32"/>
      <line x1="0" y1="-20" x2="0" y2="-8"/>
      <line x1="0" y1="0" x2="0" y2="8"/>
      <line x1="0" y1="20" x2="0" y2="32"/>
      <line x1="0" y1="40" x2="0" y2="52"/>
      <line x1="0" y1="60" x2="0" y2="72"/>
    </g>
  </g>

  <!-- Magnifying glass — upper right -->
  <g transform="translate(590, 140)">
    <!-- Handle -->
    <line x1="40" y1="40" x2="80" y2="80" stroke="#8b6010" stroke-width="6" stroke-linecap="round"/>
    <!-- Lens rim -->
    <circle cx="0" cy="0" r="44" fill="none" stroke="#8b6010" stroke-width="5"/>
    <circle cx="0" cy="0" r="38" fill="#050300" opacity="0.6" stroke="#c8a050" stroke-width="1"/>
    <!-- Lens glint -->
    <path d="M -20,-20 Q -10,-30 0,-20" stroke="#c8a050" stroke-width="2" fill="none" opacity="0.4"/>
    <!-- What the lens shows: profile frontmatter fragment -->
    <text x="0" y="-8" font-family="monospace" font-size="7" fill="#c8a050" text-anchor="middle" opacity="0.7">name:</text>
    <text x="0" y="4" font-family="monospace" font-size="7" fill="#c8a050" text-anchor="middle" opacity="0.7">roles:</text>
    <text x="0" y="16" font-family="monospace" font-size="7" fill="#c8a050" text-anchor="middle" opacity="0.7">xp: 0</text>
  </g>

  <!-- Quill pen — resting across document corner -->
  <path d="M 180,340 Q 300,310 430,240" stroke="#c8a050" stroke-width="2" fill="none" opacity="0.7"/>
  <path d="M 430,240 Q 455,225 445,235 Q 470,210 455,225 Q 478,200 460,218 L 425,245 Z" fill="#d8c880" opacity="0.7"/>
  <polygon points="180,340 172,352 186,342" fill="#3a2000"/>

  <!-- Inkwell — lower right corner -->
  <ellipse cx="630" cy="330" rx="22" ry="14" fill="#050300" stroke="#8b6010" stroke-width="2"/>
  <ellipse cx="630" cy="326" rx="22" ry="10" fill="#0a0500" stroke="#8b6010" stroke-width="1.5"/>
  <ellipse cx="630" cy="324" rx="16" ry="6" fill="#1a1a2a"/>

</svg>
