<?xml version="1.0" encoding="UTF-8"?>
<svg xmlns="http://www.w3.org/2000/svg" viewBox="0 0 600 500" width="600" height="500">
  <title>Profile Crafting Guide — The Personality-to-Role Match</title>
  <desc>Field guide illustration: aged parchment with handwritten annotations showing the five elements of a well-crafted Base Persona, with a Grace Hopper moth Easter egg hidden in the border decoration. Forest green, aged parchment palette.</desc>

  <!-- Outer frame — forest green leather/cloth binder -->
  <rect width="600" height="500" fill="#1a3a10"/>
  <rect x="5" y="5" width="590" height="490" fill="none" stroke="#2a5a18" stroke-width="2"/>
  <rect x="12" y="12" width="576" height="476" fill="none" stroke="#2a5a18" stroke-width="1" opacity="0.5"/>

  <!-- Inner parchment page -->
  <rect x="25" y="25" width="550" height="450" fill="#e8d8a0" rx="2"/>

  <!-- Parchment aging — diagonal lines for texture -->
  <g stroke="#c8b070" stroke-width="0.3" opacity="0.2">
    <line x1="25" y1="25" x2="575" y2="475"/>
    <line x1="75" y1="25" x2="575" y2="425"/>
    <line x1="125" y1="25" x2="575" y2="375"/>
    <line x1="25" y1="75" x2="525" y2="475"/>
    <line x1="25" y1="125" x2="475" y2="475"/>
  </g>

  <!-- Top header with botanical border -->
  <rect x="25" y="25" width="550" height="38" fill="#2a5a18"/>

  <!-- Oak leaf border decoration — top header -->
  <g fill="#1a4010" opacity="0.7">
    <ellipse cx="55" cy="44" rx="10" ry="5" transform="rotate(-30,55,44)"/>
    <ellipse cx="70" cy="38" rx="10" ry="5" transform="rotate(20,70,38)"/>
    <ellipse cx="85" cy="44" rx="10" ry="5" transform="rotate(-10,85,44)"/>
    <ellipse cx="510" cy="44" rx="10" ry="5" transform="rotate(30,510,44)"/>
    <ellipse cx="525" cy="38" rx="10" ry="5" transform="rotate(-20,525,38)"/>
    <ellipse cx="540" cy="44" rx="10" ry="5" transform="rotate(10,540,44)"/>
  </g>

  <text x="300" y="49" font-family="serif" font-size="14" font-weight="bold" fill="#d4c585" text-anchor="middle" letter-spacing="3">PROFILE CRAFTING GUIDE</text>

  <!-- Page title -->
  <text x="300" y="85" font-family="serif" font-size="18" font-weight="bold" fill="#1a3a10" text-anchor="middle">The Five Elements of a Base Persona</text>
  <line x1="60" y1="92" x2="540" y2="92" stroke="#2a5a18" stroke-width="1.5"/>
  <line x1="60" y1="94" x2="540" y2="94" stroke="#2a5a18" stroke-width="0.5"/>

  <!-- Element 1: Historical Context -->
  <g transform="translate(50, 110)">
    <circle cx="16" cy="10" r="14" fill="#2a5a18"/>
    <text x="16" y="15" font-family="serif" font-size="14" font-weight="bold" fill="#d4c585" text-anchor="middle">1</text>
    <text x="38" y="15" font-family="serif" font-size="13" font-weight="bold" fill="#1a3a10">Historical Context</text>
    <text x="38" y="30" font-family="serif" font-size="9" fill="#3a2a00" font-style="italic">Where did they work? Under what pressure? What did they do that no one had done?</text>
    <text x="38" y="44" font-family="serif" font-size="9" fill="#3a2a00" font-style="italic">Portrait, not biography. Foundation everything else builds on.</text>
  </g>

  <!-- Element 2: Core Personality Traits with Evidence -->
  <g transform="translate(50, 170)">
    <circle cx="16" cy="10" r="14" fill="#2a5a18"/>
    <text x="16" y="15" font-family="serif" font-size="14" font-weight="bold" fill="#d4c585" text-anchor="middle">2</text>
    <text x="38" y="15" font-family="serif" font-size="13" font-weight="bold" fill="#1a3a10">Core Traits With Evidence</text>
    <text x="38" y="30" font-family="serif" font-size="9" fill="#3a2a00" font-style="italic">3–5 adjectives, each supported by something they actually did.</text>
    <rect x="38" y="38" width="450" height="24" fill="#d4c585" stroke="#2a5a18" stroke-width="0.5" rx="2"/>
    <text x="46" y="48" font-family="monospace" font-size="8" fill="#1a3a10">✓ "methodical, but not cautious — she tested everything, but moved fast once the test passed"</text>
    <text x="46" y="58" font-family="monospace" font-size="8" fill="#8b6010">✗ "she was methodical and hard-working" — describes no one in particular</text>
  </g>

  <!-- Element 3: Voice and Communication Style -->
  <g transform="translate(50, 240)">
    <circle cx="16" cy="10" r="14" fill="#2a5a18"/>
    <text x="16" y="15" font-family="serif" font-size="14" font-weight="bold" fill="#d4c585" text-anchor="middle">3</text>
    <text x="38" y="15" font-family="serif" font-size="13" font-weight="bold" fill="#1a3a10">Voice &amp; Communication Style</text>
    <text x="38" y="30" font-family="serif" font-size="9" fill="#3a2a00" font-style="italic">Declaratives or analytical chains? Numbers or narrative? Voice = agent's output register.</text>
  </g>

  <!-- Element 4: Decision-Making Philosophy -->
  <g transform="translate(50, 295)">
    <circle cx="16" cy="10" r="14" fill="#2a5a18"/>
    <text x="16" y="15" font-family="serif" font-size="14" font-weight="bold" fill="#d4c585" text-anchor="middle">4</text>
    <text x="38" y="15" font-family="serif" font-size="13" font-weight="bold" fill="#1a3a10">Decision-Making Philosophy</text>
    <text x="38" y="30" font-family="serif" font-size="9" fill="#3a2a00" font-style="italic">How do they handle uncertainty? Ship first vs. wait for perfect requirements?</text>
  </g>

  <!-- Element 5: Known Failure Mode — highlighted as most important -->
  <g transform="translate(50, 350)">
    <circle cx="16" cy="10" r="14" fill="#8b0000"/>
    <text x="16" y="15" font-family="serif" font-size="14" font-weight="bold" fill="#fff8c0" text-anchor="middle">5</text>
    <text x="38" y="15" font-family="serif" font-size="13" font-weight="bold" fill="#8b0000">Known Failure Mode</text>
    <text x="38" y="30" font-family="serif" font-size="9" fill="#3a2a00" font-style="italic">NOT OPTIONAL. The failure mode is what makes the profile a real person.</text>
    <text x="38" y="44" font-family="serif" font-size="9" fill="#3a2a00" font-style="italic">An agent without a failure mode has no personality.</text>
    <!-- Hopper example -->
    <rect x="38" y="52" width="450" height="30" fill="#fff0e0" stroke="#8b0000" stroke-width="0.5" rx="2"/>
    <text x="46" y="65" font-family="monospace" font-size="8" fill="#3a1a00">Grace Hopper: "Her failure mode is documentation. She ships first and writes it down</text>
    <text x="46" y="75" font-family="monospace" font-size="8" fill="#3a1a00">later. Sometimes much later. The code works; the README is a stub."</text>
  </g>

  <!-- Bottom rule -->
  <rect x="60" y="442" width="480" height="2" fill="#2a5a18" opacity="0.5"/>
  <text x="300" y="460" font-family="serif" font-size="9" fill="#2a5a18" text-anchor="middle" font-style="italic">If you remove the name, it should still be recognizably THIS specific person.</text>

  <!-- ===== EASTER EGG: A moth (Grace Hopper's debugging moth) hidden in the border ornament ===== -->
  <!-- Moth hidden in the top-right corner decorative flourish, very small -->
  <g transform="translate(552, 32)" opacity="0.55">
    <!-- Moth body -->
    <ellipse cx="0" cy="0" rx="2" ry="5" fill="#3a2800"/>
    <!-- Moth wings — spread -->
    <ellipse cx="-7" cy="-2" rx="6" ry="3" fill="#4a3810" transform="rotate(-20,-7,-2)"/>
    <ellipse cx="7" cy="-2" rx="6" ry="3" fill="#4a3810" transform="rotate(20,7,-2)"/>
    <!-- Lower wings -->
    <ellipse cx="-5" cy="3" rx="4" ry="2" fill="#3a2800" transform="rotate(10,-5,3)"/>
    <ellipse cx="5" cy="3" rx="4" ry="2" fill="#3a2800" transform="rotate(-10,5,3)"/>
    <!-- Antennae -->
    <line x1="-1" y1="-5" x2="-5" y2="-10" stroke="#3a2800" stroke-width="0.7"/>
    <line x1="1" y1="-5" x2="5" y2="-10" stroke="#3a2800" stroke-width="0.7"/>
    <circle cx="-5" cy="-10" r="0.8" fill="#3a2800"/>
    <circle cx="5" cy="-10" r="0.8" fill="#3a2800"/>
  </g>
  <!-- Tiny logbook tape next to the moth -->
  <rect x="548" y="42" width="14" height="8" fill="#d4c585" stroke="#8b6010" stroke-width="0.5" opacity="0.5"/>
  <text x="555" y="48" font-family="monospace" font-size="3.5" fill="#3a1a00" text-anchor="middle" opacity="0.5">BUG</text>

  <!-- Botanical divider decorations between elements -->
  <g fill="#2a5a18" opacity="0.3">
    <!-- Small leaf decorators next to element numbers -->
    <ellipse cx="46" cy="158" rx="6" ry="2" transform="rotate(-45,46,158)"/>
    <ellipse cx="46" cy="228" rx="6" ry="2" transform="rotate(-45,46,228)"/>
    <ellipse cx="46" cy="283" rx="6" ry="2" transform="rotate(-45,46,283)"/>
    <ellipse cx="46" cy="338" rx="6" ry="2" transform="rotate(-45,46,338)"/>
  </g>

</svg>
