<?xml version="1.0" encoding="UTF-8"?>
<svg xmlns="http://www.w3.org/2000/svg" viewBox="0 0 750 420" width="750" height="420">
  <title>Getting Started — Field Manual Cover</title>
  <defs>
    <linearGradient id="gs-bg" x1="0" y1="0" x2="0" y2="1">
      <stop offset="0%" stop-color="#1a1200"/>
      <stop offset="100%" stop-color="#0d0800"/>
    </linearGradient>
    <radialGradient id="gs-halo" cx="50%" cy="48%" r="40%">
      <stop offset="0%" stop-color="#c8a050" stop-opacity="0.15"/>
      <stop offset="100%" stop-color="#c8a050" stop-opacity="0"/>
    </radialGradient>
  </defs>

  <!-- Background -->
  <rect width="750" height="420" fill="url(#gs-bg)"/>
  <rect width="750" height="420" fill="none" stroke="#c8a050" stroke-width="3"/>
  <rect x="7" y="7" width="736" height="406" fill="none" stroke="#c8a050" stroke-width="0.8" opacity="0.25"/>
  <rect x="14" y="14" width="722" height="392" fill="none" stroke="#c8a050" stroke-width="0.4" opacity="0.15"/>

  <!-- Top classification band -->
  <rect x="0" y="0" width="750" height="44" fill="#3a1a00"/>
  <text x="375" y="17" font-family="serif" font-size="11" fill="#c8a050" text-anchor="middle" letter-spacing="8" opacity="0.7">UNCLASSIFIED — FOR GENERAL DISTRIBUTION</text>
  <text x="375" y="34" font-family="serif" font-size="15" font-weight="bold" fill="#c8a050" text-anchor="middle" letter-spacing="5">FM 1-01 — ARMIES FIELD MANUAL</text>

  <!-- Bottom band -->
  <rect x="0" y="376" width="750" height="44" fill="#3a1a00"/>
  <text x="375" y="398" font-family="serif" font-size="13" fill="#c8a050" text-anchor="middle" letter-spacing="5" opacity="0.8">HEADQUARTERS — ARMIES FIELD COMMAND</text>
  <text x="375" y="415" font-family="serif" font-size="10" fill="#c8a050" text-anchor="middle" letter-spacing="4" opacity="0.5">SUPERSEDES ALL PREVIOUS EDITIONS</text>

  <!-- Center halo -->
  <ellipse cx="375" cy="200" rx="260" ry="130" fill="url(#gs-halo)"/>

  <!-- Decorative corner ornaments -->
  <path d="M 26,56 L 26,80 L 50,80" fill="none" stroke="#c8a050" stroke-width="1.5" opacity="0.6"/>
  <path d="M 724,56 L 724,80 L 700,80" fill="none" stroke="#c8a050" stroke-width="1.5" opacity="0.6"/>
  <path d="M 26,364 L 26,340 L 50,340" fill="none" stroke="#c8a050" stroke-width="1.5" opacity="0.6"/>
  <path d="M 724,364 L 724,340 L 700,340" fill="none" stroke="#c8a050" stroke-width="1.5" opacity="0.6"/>

  <!-- Soldier at attention — center silhouette -->
  <g transform="translate(375, 58)" fill="#c8a050" opacity="0.8">
    <!-- Head -->
    <ellipse cx="0" cy="20" rx="16" ry="18"/>
    <!-- Helmet -->
    <ellipse cx="0" cy="8" rx="20" ry="10" fill="#8b6010"/>
    <rect x="-20" y="12" width="40" height="6" rx="2" fill="#8b6010"/>
    <!-- Neck -->
    <rect x="-6" y="36" width="12" height="8" rx="1"/>
    <!-- Uniform jacket -->
    <path d="M -24,44 L -30,160 L 30,160 L 24,44 Z" fill="#c8a050"/>
    <!-- Collar/lapels -->
    <path d="M -6,44 L 0,56 L 6,44" fill="none" stroke="#8b6010" stroke-width="1.5"/>
    <!-- Epaulettes -->
    <rect x="-34" y="44" width="12" height="8" rx="2" fill="#8b6010"/>
    <rect x="22" y="44" width="12" height="8" rx="2" fill="#8b6010"/>
    <!-- Medal ribbons -->
    <rect x="-18" y="62" width="8" height="5" fill="#8b0000"/>
    <rect x="-9" y="62" width="8" height="5" fill="#2a5010"/>
    <rect x="0" y="62" width="8" height="5" fill="#c8a050"/>
    <rect x="9" y="62" width="8" height="5" fill="#1a3a6a"/>
    <!-- Belt -->
    <rect x="-30" y="130" width="60" height="7" rx="2" fill="#8b6010"/>
    <rect x="-5" y="131" width="10" height="5" rx="1" fill="#c8a050"/>
    <!-- Trousers -->
    <rect x="-22" y="160" width="18" height="90" rx="4"/>
    <rect x="4" y="160" width="18" height="90" rx="4"/>
    <!-- Boots -->
    <rect x="-26" y="240" width="26" height="18" rx="4" fill="#3a2000"/>
    <rect x="0" y="240" width="26" height="18" rx="4" fill="#3a2000"/>
    <!-- Rifle at side — right arm -->
    <rect x="28" y="44" width="4" height="120" rx="2" fill="#8b6010"/>
    <rect x="26" y="44" width="8" height="6" rx="1" fill="#6b4a10"/>
    <!-- Left arm at side -->
    <rect x="-32" y="44" width="8" height="80" rx="4"/>
  </g>

  <!-- Main title -->
  <text x="375" y="156" font-family="serif" font-size="42" font-weight="bold" fill="#c8a050" text-anchor="middle" letter-spacing="6">FIELD MANUAL</text>
  <line x1="100" y1="165" x2="650" y2="165" stroke="#c8a050" stroke-width="1" opacity="0.5"/>
  <text x="375" y="188" font-family="serif" font-size="22" fill="#c8a050" text-anchor="middle" letter-spacing="8" opacity="0.9">GETTING STARTED</text>

  <!-- Subtitle block -->
  <rect x="220" y="344" width="310" height="28" fill="#3a1a00" rx="2"/>
  <text x="375" y="362" font-family="monospace" font-size="14" fill="#c8a050" text-anchor="middle" letter-spacing="3">ZERO TO FIRST SPAWN</text>

</svg>
