<?xml version="1.0" encoding="UTF-8"?>
<svg xmlns="http://www.w3.org/2000/svg" viewBox="0 0 900 500" width="900" height="500">
  <title>How It Works — The Spawn Cycle</title>
  <defs>
    <radialGradient id="hw-mapglow" cx="50%" cy="60%" r="45%">
      <stop offset="0%" stop-color="#c8a050" stop-opacity="0.35"/>
      <stop offset="60%" stop-color="#c8a050" stop-opacity="0.08"/>
      <stop offset="100%" stop-color="#c8a050" stop-opacity="0"/>
    </radialGradient>
    <radialGradient id="hw-screenglow" cx="50%" cy="30%" r="30%">
      <stop offset="0%" stop-color="#4a7ab0" stop-opacity="0.3"/>
      <stop offset="100%" stop-color="#4a7ab0" stop-opacity="0"/>
    </radialGradient>
  </defs>

  <!-- Background -->
  <rect width="900" height="500" fill="#0a0700"/>
  <rect width="900" height="500" fill="none" stroke="#c8a050" stroke-width="3"/>
  <rect x="6" y="6" width="888" height="488" fill="none" stroke="#c8a050" stroke-width="0.5" opacity="0.25"/>

  <!-- Top band -->
  <rect x="0" y="0" width="900" height="44" fill="#3a1a00"/>
  <text x="450" y="29" font-family="serif" font-size="28" font-weight="bold" fill="#c8a050" text-anchor="middle" letter-spacing="8">THE SPAWN CYCLE</text>

  <!-- Bottom band -->
  <rect x="0" y="456" width="900" height="44" fill="#3a1a00"/>
  <text x="450" y="476" font-family="serif" font-size="13" fill="#c8a050" text-anchor="middle" letter-spacing="4" opacity="0.8">MATCH → SPAWN → EXECUTE → RECORD → AWARD</text>

  <!-- Screen glow on back wall -->
  <rect x="200" y="60" width="500" height="220" fill="#050f1a" rx="8" stroke="#2a4a6a" stroke-width="2"/>
  <rect x="200" y="60" width="500" height="220" fill="url(#hw-screenglow)"/>
  <!-- Screen content: simplified map lines -->
  <g stroke="#4a7ab0" stroke-width="1" opacity="0.6" fill="none">
    <line x1="220" y1="100" x2="680" y2="100"/>
    <line x1="220" y1="140" x2="680" y2="140"/>
    <line x1="220" y1="180" x2="680" y2="180"/>
    <line x1="220" y1="220" x2="680" y2="220"/>
    <line x1="300" y1="70" x2="300" y2="270"/>
    <line x1="400" y1="70" x2="400" y2="270"/>
    <line x1="500" y1="70" x2="500" y2="270"/>
    <line x1="600" y1="70" x2="600" y2="270"/>
  </g>
  <!-- Phase labels on screen -->
  <text x="260" y="95" font-family="monospace" font-size="14" fill="#4a9ad0" letter-spacing="2">MATCH</text>
  <text x="378" y="95" font-family="monospace" font-size="14" fill="#c8a050" letter-spacing="2">SPAWN</text>
  <text x="490" y="95" font-family="monospace" font-size="14" fill="#5a9a30" letter-spacing="2">EXECUTE</text>
  <text x="598" y="95" font-family="monospace" font-size="14" fill="#c83030" letter-spacing="2">AWARD</text>
  <!-- Glowing dot markers on screen -->
  <circle cx="280" cy="160" r="6" fill="#4a9ad0" opacity="0.8"/>
  <circle cx="400" cy="140" r="8" fill="#c8a050" opacity="0.9"/>
  <circle cx="540" cy="180" r="6" fill="#5a9a30" opacity="0.8"/>
  <circle cx="640" cy="150" r="5" fill="#c83030" opacity="0.8"/>
  <!-- Lines connecting dots -->
  <path d="M 280,160 L 400,140 L 540,180 L 640,150" stroke="#c8a050" stroke-width="1.5" fill="none" opacity="0.6"/>

  <!-- Map table glow -->
  <ellipse cx="450" cy="360" rx="320" ry="60" fill="url(#hw-mapglow)"/>

  <!-- Map table surface -->
  <ellipse cx="450" cy="370" rx="300" ry="50" fill="#1a0f00" stroke="#c8a050" stroke-width="1.5"/>
  <ellipse cx="450" cy="370" rx="280" ry="44" fill="none" stroke="#8b6010" stroke-width="0.5" opacity="0.5"/>
  <!-- Table legs suggestion -->
  <line x1="180" y1="390" x2="170" y2="444" stroke="#8b6010" stroke-width="3"/>
  <line x1="720" y1="390" x2="730" y2="444" stroke="#8b6010" stroke-width="3"/>

  <!-- Officer silhouettes around table -->
  <!-- Center officer — pointing at table -->
  <g transform="translate(450, 285)" fill="#c8a050" opacity="0.85">
    <ellipse cx="0" cy="-2" rx="13" ry="15"/>
    <ellipse cx="0" cy="-12" rx="16" ry="7" fill="#8b6010"/>
    <rect x="-16" y="14" width="32" height="62" rx="4"/>
    <rect x="-20" y="14" width="10" height="8" rx="2" fill="#8b6010"/>
    <rect x="10" y="14" width="10" height="8" rx="2" fill="#8b6010"/>
    <!-- Pointing arm -->
    <path d="M 16,28 Q 40,50 55,65" stroke="#c8a050" stroke-width="5" fill="none" stroke-linecap="round"/>
  </g>

  <!-- Left officer -->
  <g transform="translate(280, 300)" fill="#c8a050" opacity="0.6">
    <ellipse cx="0" cy="-2" rx="11" ry="13"/>
    <ellipse cx="0" cy="-11" rx="13" ry="6" fill="#8b6010"/>
    <rect x="-13" y="12" width="26" height="55" rx="3"/>
  </g>

  <!-- Right officer -->
  <g transform="translate(620, 300)" fill="#c8a050" opacity="0.6">
    <ellipse cx="0" cy="-2" rx="11" ry="13"/>
    <ellipse cx="0" cy="-11" rx="13" ry="6" fill="#8b6010"/>
    <rect x="-13" y="12" width="26" height="55" rx="3"/>
  </g>

  <!-- Far left background figure -->
  <g transform="translate(170, 310)" fill="#c8a050" opacity="0.35">
    <ellipse cx="0" cy="-2" rx="9" ry="11"/>
    <rect x="-10" y="10" width="20" height="45" rx="3"/>
  </g>

  <!-- Far right background figure -->
  <g transform="translate(730, 310)" fill="#c8a050" opacity="0.35">
    <ellipse cx="0" cy="-2" rx="9" ry="11"/>
    <rect x="-10" y="10" width="20" height="45" rx="3"/>
  </g>

</svg>
