<?xml version="1.0" encoding="UTF-8"?>
<svg xmlns="http://www.w3.org/2000/svg" viewBox="0 0 760 340" width="760" height="340">
  <title>Malus Decay Chart — Effective Malus Over Time</title>
  <desc>Wartime infographic chart showing how a P0 malus entry (100 raw points) decays from 100 to near-zero over 84 days.</desc>

  <!-- Background -->
  <rect width="760" height="340" fill="#1a0f00"/>
  <rect x="0" y="0" width="760" height="340" fill="none" stroke="#8b6010" stroke-width="2"/>

  <!-- Title band -->
  <rect x="0" y="0" width="760" height="34" fill="#3a1a00"/>
  <text x="380" y="22" font-family="serif" font-size="17" font-weight="bold" fill="#c8a050" text-anchor="middle" letter-spacing="3">MALUS DECAY — P0 INCIDENT (100 RAW POINTS)</text>
  <text x="752" y="22" font-family="monospace" font-size="12" fill="#5a3a00" text-anchor="end">decays: true</text>

  <!-- Chart area -->
  <rect x="60" y="46" width="640" height="220" fill="#0d0800" stroke="#3a1a00" stroke-width="1"/>

  <!-- Grid lines - horizontal -->
  <g stroke="#2a1500" stroke-width="1" stroke-dasharray="3,3" opacity="0.7">
    <line x1="60" y1="46" x2="700" y2="46"/>
    <line x1="60" y1="101" x2="700" y2="101"/>
    <line x1="60" y1="156" x2="700" y2="156"/>
    <line x1="60" y1="211" x2="700" y2="211"/>
    <line x1="60" y1="266" x2="700" y2="266"/>
  </g>

  <!-- Grid lines - vertical -->
  <g stroke="#2a1500" stroke-width="1" stroke-dasharray="3,3" opacity="0.5">
    <line x1="60" y1="46" x2="60" y2="266"/>
    <line x1="129" y1="46" x2="129" y2="266"/>
    <line x1="198" y1="46" x2="198" y2="266"/>
    <line x1="336" y1="46" x2="336" y2="266"/>
    <line x1="474" y1="46" x2="474" y2="266"/>
    <line x1="543" y1="46" x2="543" y2="266"/>
    <line x1="700" y1="46" x2="700" y2="266"/>
  </g>

  <!-- Y axis labels -->
  <g font-family="monospace" font-size="14" fill="#5a3a00" text-anchor="end">
    <text x="55" y="50">100</text>
    <text x="55" y="105">75</text>
    <text x="55" y="160">50</text>
    <text x="55" y="215">25</text>
    <text x="55" y="270">0</text>
  </g>

  <!-- X axis labels -->
  <g font-family="monospace" font-size="14" fill="#5a3a00" text-anchor="middle">
    <text x="60" y="284">0</text>
    <text x="129" y="284">7</text>
    <text x="198" y="284">14</text>
    <text x="336" y="284">28</text>
    <text x="474" y="284">42</text>
    <text x="543" y="284">56</text>
    <text x="700" y="284">84</text>
  </g>
  <text x="380" y="302" font-family="sans-serif" font-size="13" fill="#5a3a00" text-anchor="middle">DAYS SINCE INCIDENT</text>

  <!-- Y axis label -->
  <text x="18" y="161" font-family="sans-serif" font-size="13" fill="#5a3a00" text-anchor="middle" transform="rotate(-90,18,161)">EFFECTIVE MALUS</text>

  <!-- Decay curve fill -->
  <path d="M 60,46 C 80,71 105,100 129,111 S 165,141 198,156 S 270,199 336,211 S 430,233 474,239 S 518,249 543,252 L 700,263 L 700,266 L 60,266 Z"
        fill="#8b0000" opacity="0.2"/>

  <!-- Decay curve line -->
  <path d="M 60,46 C 80,71 105,100 129,111 S 165,141 198,156 S 270,199 336,211 S 430,233 474,239 S 518,249 543,252 L 700,263"
        stroke="#c83030" stroke-width="2.5" fill="none"/>

  <!-- Data point markers -->
  <g fill="#c83030">
    <circle cx="60" cy="46" r="5"/>
    <circle cx="129" cy="111" r="4"/>
    <circle cx="198" cy="156" r="4"/>
    <circle cx="336" cy="211" r="4"/>
    <circle cx="474" cy="239" r="4"/>
    <circle cx="543" cy="252" r="4"/>
    <circle cx="700" cy="263" r="4"/>
  </g>

  <!-- Data point annotations — kept compact -->
  <g font-family="monospace" font-size="14" fill="#c83030">
    <text x="66" y="42">100.0</text>
    <text x="108" y="106">70.7</text>
    <text x="185" y="151">50.0</text>
    <text x="317" y="206">25.0</text>
    <text x="456" y="234">12.5</text>
    <text x="548" y="248">6.3</text>
    <text x="660" y="259">1.6</text>
  </g>

  <!-- Half-life annotation markers -->
  <line x1="198" y1="46" x2="198" y2="156" stroke="#8b6010" stroke-width="1" stroke-dasharray="2,2" opacity="0.6"/>
  <text x="202" y="62" font-family="sans-serif" font-size="12" fill="#8b6010" opacity="0.8">1st half-life</text>

  <line x1="336" y1="46" x2="336" y2="211" stroke="#8b6010" stroke-width="1" stroke-dasharray="2,2" opacity="0.5"/>
  <text x="340" y="62" font-family="sans-serif" font-size="12" fill="#8b6010" opacity="0.7">2nd</text>

  <!-- FIXED: "effectively negligible" annotation — wider box, properly centered -->
  <rect x="443" y="248" width="200" height="18" fill="#1a0f00" opacity="0.9"/>
  <text x="543" y="261" font-family="sans-serif" font-size="12" fill="#8b6010" text-anchor="middle" font-style="italic">effectively negligible</text>

  <!-- PERMANENT LINE -->
  <line x1="60" y1="46" x2="700" y2="46" stroke="#8b0000" stroke-width="3" stroke-dasharray="8,4" opacity="0.8"/>
  <!-- Permanent line label — kept left to avoid right overflow -->
  <text x="200" y="42" font-family="sans-serif" font-size="12" fill="#8b0000" text-anchor="middle" font-weight="bold">PERMANENT (malpractice)</text>

  <!-- Eisenhower annotation — moved to avoid overlap with "effectively negligible" -->
  <text x="698" y="42" font-family="sans-serif" font-size="12" fill="#8b0000" text-anchor="end" font-style="italic">Eisenhower: 160pt</text>

  <!-- FIXED LEGEND — two rows, font-size 14, within SVG bounds -->
  <!-- Row 1 -->
  <g transform="translate(60, 288)">
    <line x1="0" y1="8" x2="20" y2="8" stroke="#c83030" stroke-width="2.5"/>
    <circle cx="10" cy="8" r="3" fill="#c83030"/>
    <text x="26" y="12" font-family="sans-serif" font-size="14" fill="#c8a050">Normal defect (decays: true) — 14-day half-life</text>
  </g>
  <!-- Row 2 -->
  <g transform="translate(60, 310)">
    <line x1="0" y1="8" x2="20" y2="8" stroke="#8b0000" stroke-width="3" stroke-dasharray="6,3"/>
    <text x="26" y="12" font-family="sans-serif" font-size="14" fill="#c8a050">Permanent (malpractice) — never decays</text>
  </g>

</svg>
