<?xml version="1.0" encoding="UTF-8"?>
<svg xmlns="http://www.w3.org/2000/svg" viewBox="0 0 780 380" width="780" height="380">
  <title>Armies — Role Class Insignia</title>

  <!-- Background -->
  <rect width="780" height="380" fill="#0d0800"/>
  <rect width="780" height="380" fill="none" stroke="#c8a050" stroke-width="3"/>
  <rect x="6" y="6" width="768" height="368" fill="none" stroke="#c8a050" stroke-width="0.5" opacity="0.3"/>

  <!-- Top band -->
  <rect x="0" y="0" width="780" height="34" fill="#3a1a00"/>
  <text x="390" y="22" font-family="serif" font-size="15" font-weight="bold" fill="#c8a050" text-anchor="middle" letter-spacing="6">ROLE CLASS INSIGNIA</text>

  <!-- Bottom band -->
  <rect x="0" y="346" width="780" height="34" fill="#3a1a00"/>
  <text x="390" y="367" font-family="serif" font-size="12" fill="#c8a050" text-anchor="middle" letter-spacing="5" opacity="0.7">8 ROLE CLASSES — ONE MISSION PER SPAWN</text>

  <!-- Badge macro: octagon shape helper -->
  <!-- Row 1: coordinator, implementer, qa-validator, planner -->
  <!-- Row 2: researcher, artist, observer, troubleshooter -->

  <!-- Badge positions: row1 y=85 center, row2 y=235 center -->
  <!-- x positions: 80, 225, 370, 515 (but we have 4 in row, spacing ~160px, start ~80) -->
  <!-- Actually 780px / 4 = 195 each, centers at 97.5, 292.5, 487.5, 682.5... too far apart -->
  <!-- Better: start at 80, spacing 165: 80, 245, 410, 575, 740 - but 740 near edge -->
  <!-- Let's use: 4 per row, centers at 97, 262, 487, 652 in 780px... -->
  <!-- Centers: 780/8 * (1,3,5,7) = 97.5, 292.5, 487.5, 682.5 -->

  <!-- COORDINATOR badge — gold/bronze -->
  <g transform="translate(97,115)">
    <polygon points="0,-48 28,-34 46,-10 46,18 28,42 0,52 -28,42 -46,18 -46,-10 -28,-34" fill="#8b6010" stroke="#c8a050" stroke-width="2"/>
    <polygon points="0,-38 22,-27 36,-8 36,14 22,33 0,41 -22,33 -36,14 -36,-8 -22,-27" fill="none" stroke="#c8a050" stroke-width="0.8" opacity="0.5"/>
    <text x="0" y="6" font-family="serif" font-size="11" font-weight="bold" fill="#d8c880" text-anchor="middle" letter-spacing="1">COORD</text>
    <text x="0" y="20" font-family="monospace" font-size="9" fill="#c8a050" text-anchor="middle">★★★</text>
    <text x="0" y="76" font-family="serif" font-size="14" font-weight="bold" fill="#c8a050" text-anchor="middle" letter-spacing="1">COORDINATOR</text>
  </g>

  <!-- IMPLEMENTER badge — blue-steel -->
  <g transform="translate(262,115)">
    <polygon points="0,-48 28,-34 46,-10 46,18 28,42 0,52 -28,42 -46,18 -46,-10 -28,-34" fill="#1a2a4a" stroke="#4a7ab0" stroke-width="2"/>
    <polygon points="0,-38 22,-27 36,-8 36,14 22,33 0,41 -22,33 -36,14 -36,-8 -22,-27" fill="none" stroke="#4a7ab0" stroke-width="0.8" opacity="0.5"/>
    <text x="0" y="6" font-family="serif" font-size="11" font-weight="bold" fill="#8ab8e8" text-anchor="middle" letter-spacing="1">IMPL</text>
    <text x="0" y="20" font-family="monospace" font-size="9" fill="#4a7ab0" text-anchor="middle">⚙⚙⚙</text>
    <text x="0" y="76" font-family="serif" font-size="14" font-weight="bold" fill="#8ab8e8" text-anchor="middle" letter-spacing="1">IMPLEMENTER</text>
  </g>

  <!-- QA-VALIDATOR badge — red/warning -->
  <g transform="translate(487,115)">
    <polygon points="0,-48 28,-34 46,-10 46,18 28,42 0,52 -28,42 -46,18 -46,-10 -28,-34" fill="#3a0000" stroke="#c83030" stroke-width="2"/>
    <polygon points="0,-38 22,-27 36,-8 36,14 22,33 0,41 -22,33 -36,14 -36,-8 -22,-27" fill="none" stroke="#c83030" stroke-width="0.8" opacity="0.5"/>
    <text x="0" y="6" font-family="serif" font-size="11" font-weight="bold" fill="#e88080" text-anchor="middle" letter-spacing="1">QA</text>
    <text x="0" y="20" font-family="monospace" font-size="9" fill="#c83030" text-anchor="middle">⚑⚑⚑</text>
    <text x="0" y="76" font-family="serif" font-size="14" font-weight="bold" fill="#e88080" text-anchor="middle" letter-spacing="1">QA-VALIDATOR</text>
  </g>

  <!-- PLANNER badge — dark green -->
  <g transform="translate(682,115)">
    <polygon points="0,-48 28,-34 46,-10 46,18 28,42 0,52 -28,42 -46,18 -46,-10 -28,-34" fill="#1a3010" stroke="#5a8a30" stroke-width="2"/>
    <polygon points="0,-38 22,-27 36,-8 36,14 22,33 0,41 -22,33 -36,14 -36,-8 -22,-27" fill="none" stroke="#5a8a30" stroke-width="0.8" opacity="0.5"/>
    <text x="0" y="6" font-family="serif" font-size="11" font-weight="bold" fill="#90c060" text-anchor="middle" letter-spacing="1">PLAN</text>
    <text x="0" y="20" font-family="monospace" font-size="9" fill="#5a8a30" text-anchor="middle">◈◈◈</text>
    <text x="0" y="76" font-family="serif" font-size="14" font-weight="bold" fill="#90c060" text-anchor="middle" letter-spacing="1">PLANNER</text>
  </g>

  <!-- Row divider -->
  <line x1="40" y1="208" x2="740" y2="208" stroke="#c8a050" stroke-width="0.5" opacity="0.3"/>

  <!-- RESEARCHER badge — amber -->
  <g transform="translate(97,265)">
    <polygon points="0,-48 28,-34 46,-10 46,18 28,42 0,52 -28,42 -46,18 -46,-10 -28,-34" fill="#2a1a00" stroke="#c87820" stroke-width="2"/>
    <polygon points="0,-38 22,-27 36,-8 36,14 22,33 0,41 -22,33 -36,14 -36,-8 -22,-27" fill="none" stroke="#c87820" stroke-width="0.8" opacity="0.5"/>
    <text x="0" y="6" font-family="serif" font-size="11" font-weight="bold" fill="#e8a850" text-anchor="middle" letter-spacing="1">RSCH</text>
    <text x="0" y="20" font-family="monospace" font-size="9" fill="#c87820" text-anchor="middle">◎◎◎</text>
    <text x="0" y="76" font-family="serif" font-size="14" font-weight="bold" fill="#e8a850" text-anchor="middle" letter-spacing="1">RESEARCHER</text>
  </g>

  <!-- ARTIST badge — purple -->
  <g transform="translate(262,265)">
    <polygon points="0,-48 28,-34 46,-10 46,18 28,42 0,52 -28,42 -46,18 -46,-10 -28,-34" fill="#1a0a2a" stroke="#8050c0" stroke-width="2"/>
    <polygon points="0,-38 22,-27 36,-8 36,14 22,33 0,41 -22,33 -36,14 -36,-8 -22,-27" fill="none" stroke="#8050c0" stroke-width="0.8" opacity="0.5"/>
    <text x="0" y="6" font-family="serif" font-size="11" font-weight="bold" fill="#c090f0" text-anchor="middle" letter-spacing="1">ART</text>
    <text x="0" y="20" font-family="monospace" font-size="9" fill="#8050c0" text-anchor="middle">✦✦✦</text>
    <text x="0" y="76" font-family="serif" font-size="14" font-weight="bold" fill="#c090f0" text-anchor="middle" letter-spacing="1">ARTIST</text>
  </g>

  <!-- OBSERVER badge — grey/silver -->
  <g transform="translate(487,265)">
    <polygon points="0,-48 28,-34 46,-10 46,18 28,42 0,52 -28,42 -46,18 -46,-10 -28,-34" fill="#1a1a1a" stroke="#808080" stroke-width="2"/>
    <polygon points="0,-38 22,-27 36,-8 36,14 22,33 0,41 -22,33 -36,14 -36,-8 -22,-27" fill="none" stroke="#808080" stroke-width="0.8" opacity="0.5"/>
    <text x="0" y="6" font-family="serif" font-size="11" font-weight="bold" fill="#b0b0b0" text-anchor="middle" letter-spacing="1">OBS</text>
    <text x="0" y="20" font-family="monospace" font-size="9" fill="#808080" text-anchor="middle">◉◉◉</text>
    <text x="0" y="76" font-family="serif" font-size="14" font-weight="bold" fill="#b0b0b0" text-anchor="middle" letter-spacing="1">OBSERVER</text>
  </g>

  <!-- TROUBLESHOOTER badge — orange/alert -->
  <g transform="translate(682,265)">
    <polygon points="0,-48 28,-34 46,-10 46,18 28,42 0,52 -28,42 -46,18 -46,-10 -28,-34" fill="#2a0f00" stroke="#c05010" stroke-width="2"/>
    <polygon points="0,-38 22,-27 36,-8 36,14 22,33 0,41 -22,33 -36,14 -36,-8 -22,-27" fill="none" stroke="#c05010" stroke-width="0.8" opacity="0.5"/>
    <text x="0" y="6" font-family="serif" font-size="11" font-weight="bold" fill="#e07040" text-anchor="middle" letter-spacing="1">TRBL</text>
    <text x="0" y="20" font-family="monospace" font-size="9" fill="#c05010" text-anchor="middle">⚡⚡⚡</text>
    <text x="0" y="76" font-family="serif" font-size="14" font-weight="bold" fill="#e07040" text-anchor="middle" letter-spacing="1">TROUBLESHOOTER</text>
  </g>

</svg>
