<?xml version="1.0" encoding="UTF-8"?>
<svg xmlns="http://www.w3.org/2000/svg" viewBox="0 0 700 400" width="700" height="400">
  <title>Security — Classified by Design</title>
  <defs>
    <radialGradient id="sc-glow" cx="50%" cy="50%" r="40%">
      <stop offset="0%" stop-color="#8b0000" stop-opacity="0.2"/>
      <stop offset="100%" stop-color="#8b0000" stop-opacity="0"/>
    </radialGradient>
  </defs>

  <!-- Background -->
  <rect width="700" height="400" fill="#0d0800"/>
  <rect width="700" height="400" fill="none" stroke="#c8a050" stroke-width="3"/>
  <rect x="6" y="6" width="688" height="388" fill="none" stroke="#c8a050" stroke-width="0.5" opacity="0.25"/>

  <!-- Top band -->
  <rect x="0" y="0" width="700" height="44" fill="#3a1a00"/>
  <text x="350" y="29" font-family="serif" font-size="26" font-weight="bold" fill="#c8a050" text-anchor="middle" letter-spacing="7">SECURE BY DESIGN</text>

  <!-- Bottom band -->
  <rect x="0" y="356" width="700" height="44" fill="#3a1a00"/>
  <text x="350" y="380" font-family="serif" font-size="13" fill="#c8a050" text-anchor="middle" letter-spacing="5" opacity="0.8">CHAINGUARD · NON-ROOT · SIGNED · ZERO CVE</text>

  <!-- Document background -->
  <rect x="80" y="62" width="540" height="280" fill="#0d0900" rx="4" stroke="#2a1a00" stroke-width="1"/>
  <!-- Document lines -->
  <g stroke="#1a1200" stroke-width="1" opacity="0.4">
    <line x1="110" y1="95" x2="590" y2="95"/>
    <line x1="110" y1="115" x2="590" y2="115"/>
    <line x1="110" y1="135" x2="590" y2="135"/>
    <line x1="110" y1="155" x2="400" y2="155"/>
    <line x1="110" y1="220" x2="590" y2="220"/>
    <line x1="110" y1="240" x2="590" y2="240"/>
    <line x1="110" y1="260" x2="590" y2="260"/>
    <line x1="110" y1="280" x2="450" y2="280"/>
    <line x1="110" y1="300" x2="520" y2="300"/>
    <line x1="110" y1="320" x2="590" y2="320"/>
  </g>
  <!-- Document header text (generic) -->
  <text x="350" y="85" font-family="serif" font-size="11" fill="#2a1a00" text-anchor="middle" opacity="0.6" letter-spacing="2">SECURITY CONFIGURATION — ARMIES DEPLOYMENT GUIDE</text>
  <!-- Divider line after header -->
  <line x1="110" y1="88" x2="590" y2="88" stroke="#2a1a00" stroke-width="1.5" opacity="0.5"/>

  <!-- Center glow -->
  <ellipse cx="350" cy="200" rx="220" ry="100" fill="url(#sc-glow)"/>

  <!-- CLASSIFIED stamp — large, angled, center -->
  <g transform="translate(350, 200) rotate(-12)">
    <rect x="-180" y="-44" width="360" height="88" fill="none" stroke="#8b0000" stroke-width="6" rx="6"/>
    <rect x="-172" y="-36" width="344" height="72" fill="none" stroke="#8b0000" stroke-width="2" rx="4"/>
    <text x="0" y="12" font-family="serif" font-size="52" font-weight="bold" fill="#8b0000" text-anchor="middle" letter-spacing="8" opacity="0.85">CLASSIFIED</text>
  </g>

  <!-- Secondary UNCLASSIFIED tag at bottom of document -->
  <g transform="translate(350, 320) rotate(0)">
    <rect x="-100" y="-14" width="200" height="28" fill="none" stroke="#5a9a30" stroke-width="2" rx="2"/>
    <text x="0" y="7" font-family="monospace" font-size="14" fill="#5a9a30" text-anchor="middle" letter-spacing="3">UNCLASSIFIED</text>
  </g>

  <!-- Document corner fold -->
  <path d="M 560,62 L 620,62 L 620,122 Z" fill="#1a0800" opacity="0.8"/>
  <path d="M 560,62 L 620,122 L 560,122 Z" fill="#2a1400" stroke="#c8a050" stroke-width="0.5" opacity="0.4"/>

  <!-- Stamp ink bleed marks (small dots around stamp) -->
  <g fill="#8b0000" opacity="0.3">
    <circle cx="168" cy="156" r="3"/>
    <circle cx="175" cy="240" r="2"/>
    <circle cx="530" cy="162" r="2"/>
    <circle cx="520" cy="248" r="3"/>
    <circle cx="200" cy="250" r="1.5"/>
  </g>

</svg>
