<?xml version="1.0" encoding="UTF-8"?>
<svg xmlns="http://www.w3.org/2000/svg" viewBox="0 0 900 440" width="900" height="440">
  <title>Five Team Templates — Formation Diagram in Military Tactical Style</title>
  <desc>Top-down tactical formation map showing the five built-in team templates as military unit compositions. Each agent represented by a figure carrying a different tool icon. Steel blue, operational grey palette.</desc>

  <!-- Background — tactical map green/grey -->
  <rect width="900" height="440" fill="#1e2820"/>
  <rect x="0" y="0" width="900" height="440" fill="none" stroke="#3a5030" stroke-width="3"/>

  <!-- Subtle terrain texture lines -->
  <g stroke="#2a3828" stroke-width="0.5" opacity="0.4">
    <path d="M 0,50 Q 150,30 300,55 Q 450,80 600,50 Q 750,20 900,45"/>
    <path d="M 0,150 Q 200,130 400,155 Q 600,180 800,145 Q 850,138 900,142"/>
    <path d="M 0,280 Q 180,260 360,285 Q 540,310 720,275 Q 810,258 900,268"/>
  </g>

  <!-- Header bar -->
  <rect x="0" y="0" width="900" height="34" fill="#2a3828"/>
  <text x="450" y="23" font-family="serif" font-size="14" font-weight="bold" fill="#a0c080" text-anchor="middle" letter-spacing="4">TEAM TEMPLATES — TACTICAL FORMATION REFERENCE</text>

  <!-- ============ TEMPLATE 1: Standard Development ============ -->
  <g transform="translate(18,45)">
    <rect x="0" y="0" width="165" height="180" fill="#0d1a10" stroke="#3a5030" stroke-width="1.5" rx="3"/>
    <rect x="0" y="0" width="165" height="22" fill="#2a4020"/>
    <text x="82" y="15" font-family="sans-serif" font-size="9" font-weight="bold" fill="#a0c080" text-anchor="middle" letter-spacing="1">STD DEVELOPMENT</text>

    <!-- Coordinator at top (hub) -->
    <!-- Agent figure: circle with role letter -->
    <g transform="translate(82,50)">
      <circle cx="0" cy="0" r="14" fill="#1a3a6e" stroke="#6090c0" stroke-width="1.5"/>
      <text x="0" y="5" font-family="sans-serif" font-size="9" font-weight="bold" fill="#e0f0ff" text-anchor="middle">C</text>
      <!-- Baton icon above -->
      <rect x="-1" y="-22" width="2" height="8" fill="#6090c0"/>
      <text x="0" y="-28" font-family="sans-serif" font-size="6" fill="#6090c0" text-anchor="middle">COORD</text>
    </g>

    <!-- Connection lines from coordinator -->
    <line x1="72" y1="63" x2="36" y2="95" stroke="#3a5030" stroke-width="1" stroke-dasharray="3,2"/>
    <line x1="82" y1="64" x2="82" y2="95" stroke="#3a5030" stroke-width="1" stroke-dasharray="3,2"/>
    <line x1="92" y1="63" x2="128" y2="95" stroke="#3a5030" stroke-width="1" stroke-dasharray="3,2"/>

    <!-- Implementer 1 -->
    <g transform="translate(36,110)">
      <circle cx="0" cy="0" r="12" fill="#5a1a00" stroke="#c06030" stroke-width="1.5"/>
      <text x="0" y="4" font-family="sans-serif" font-size="8" fill="#ffe0c0" text-anchor="middle">I</text>
      <text x="0" y="18" font-family="sans-serif" font-size="6" fill="#c06030" text-anchor="middle">IMPL×2</text>
    </g>

    <!-- Implementer 2 -->
    <g transform="translate(82,110)">
      <circle cx="0" cy="0" r="12" fill="#5a1a00" stroke="#c06030" stroke-width="1.5"/>
      <text x="0" y="4" font-family="sans-serif" font-size="8" fill="#ffe0c0" text-anchor="middle">I</text>
    </g>

    <!-- QA Validator -->
    <g transform="translate(128,110)">
      <circle cx="0" cy="0" r="12" fill="#1a3a1a" stroke="#30a050" stroke-width="1.5"/>
      <text x="0" y="4" font-family="sans-serif" font-size="8" fill="#a0e0a0" text-anchor="middle">Q</text>
      <text x="0" y="18" font-family="sans-serif" font-size="6" fill="#30a050" text-anchor="middle">QA</text>
    </g>

    <!-- Observer (bottom) -->
    <line x1="82" y1="120" x2="82" y2="148" stroke="#3a5030" stroke-width="1" stroke-dasharray="2,3"/>
    <g transform="translate(82,155)">
      <circle cx="0" cy="0" r="12" fill="#1a1a3a" stroke="#5050a0" stroke-width="1.5"/>
      <text x="0" y="4" font-family="sans-serif" font-size="8" fill="#a0a0e0" text-anchor="middle">O</text>
      <text x="0" y="18" font-family="sans-serif" font-size="6" fill="#5050a0" text-anchor="middle">OBS</text>
    </g>
  </g>

  <!-- ============ TEMPLATE 2: Quality Sprint ============ -->
  <g transform="translate(196,45)">
    <rect x="0" y="0" width="165" height="180" fill="#0d1a10" stroke="#3a5030" stroke-width="1.5" rx="3"/>
    <rect x="0" y="0" width="165" height="22" fill="#2a4020"/>
    <text x="82" y="15" font-family="sans-serif" font-size="9" font-weight="bold" fill="#a0c080" text-anchor="middle" letter-spacing="1">QUALITY SPRINT</text>

    <!-- Coordinator -->
    <g transform="translate(82,50)">
      <circle cx="0" cy="0" r="14" fill="#1a3a6e" stroke="#6090c0" stroke-width="1.5"/>
      <text x="0" y="5" font-family="sans-serif" font-size="9" font-weight="bold" fill="#e0f0ff" text-anchor="middle">C</text>
    </g>

    <line x1="68" y1="63" x2="40" y2="95" stroke="#3a5030" stroke-width="1" stroke-dasharray="3,2"/>
    <line x1="96" y1="63" x2="124" y2="95" stroke="#3a5030" stroke-width="1" stroke-dasharray="3,2"/>

    <!-- QA Validator ×2 -->
    <g transform="translate(40,110)">
      <circle cx="0" cy="0" r="12" fill="#1a3a1a" stroke="#30a050" stroke-width="1.5"/>
      <text x="0" y="4" font-family="sans-serif" font-size="8" fill="#a0e0a0" text-anchor="middle">Q</text>
      <text x="0" y="18" font-family="sans-serif" font-size="6" fill="#30a050" text-anchor="middle">QA×2</text>
    </g>
    <g transform="translate(124,110)">
      <circle cx="0" cy="0" r="12" fill="#1a3a1a" stroke="#30a050" stroke-width="1.5"/>
      <text x="0" y="4" font-family="sans-serif" font-size="8" fill="#a0e0a0" text-anchor="middle">Q</text>
    </g>

    <!-- Troubleshooter (insurance) -->
    <g transform="translate(82,110)">
      <circle cx="0" cy="0" r="12" fill="#3a1a00" stroke="#c05010" stroke-width="1.5" stroke-dasharray="2,1"/>
      <text x="0" y="4" font-family="sans-serif" font-size="8" fill="#e0a080" text-anchor="middle">T</text>
      <text x="0" y="18" font-family="sans-serif" font-size="5" fill="#c05010" text-anchor="middle">RESERVE</text>
    </g>

    <!-- Observer (bottom) -->
    <line x1="82" y1="120" x2="82" y2="148" stroke="#3a5030" stroke-width="1" stroke-dasharray="2,3"/>
    <g transform="translate(82,155)">
      <circle cx="0" cy="0" r="12" fill="#1a1a3a" stroke="#5050a0" stroke-width="1.5"/>
      <text x="0" y="4" font-family="sans-serif" font-size="8" fill="#a0a0e0" text-anchor="middle">O</text>
      <text x="0" y="18" font-family="sans-serif" font-size="6" fill="#5050a0" text-anchor="middle">OBS</text>
    </g>
  </g>

  <!-- ============ TEMPLATE 3: Research Spike ============ -->
  <g transform="translate(374,45)">
    <rect x="0" y="0" width="165" height="180" fill="#0d1a10" stroke="#3a5030" stroke-width="1.5" rx="3"/>
    <rect x="0" y="0" width="165" height="22" fill="#2a4020"/>
    <text x="82" y="15" font-family="sans-serif" font-size="9" font-weight="bold" fill="#a0c080" text-anchor="middle" letter-spacing="1">RESEARCH SPIKE</text>

    <!-- Planner at top (both beginning and end) -->
    <g transform="translate(82,50)">
      <circle cx="0" cy="0" r="14" fill="#3a1a5a" stroke="#8060a0" stroke-width="1.5"/>
      <text x="0" y="5" font-family="sans-serif" font-size="9" font-weight="bold" fill="#e0c0ff" text-anchor="middle">P</text>
      <text x="0" y="-22" font-family="sans-serif" font-size="6" fill="#8060a0" text-anchor="middle">PLANNER</text>
    </g>

    <line x1="68" y1="63" x2="40" y2="95" stroke="#3a5030" stroke-width="1" stroke-dasharray="3,2"/>
    <line x1="96" y1="63" x2="124" y2="95" stroke="#3a5030" stroke-width="1" stroke-dasharray="3,2"/>

    <!-- Researcher ×2 -->
    <g transform="translate(40,110)">
      <circle cx="0" cy="0" r="12" fill="#1a2a3a" stroke="#4060a0" stroke-width="1.5"/>
      <text x="0" y="4" font-family="sans-serif" font-size="8" fill="#a0c0e0" text-anchor="middle">R</text>
      <text x="0" y="18" font-family="sans-serif" font-size="6" fill="#4060a0" text-anchor="middle">RSRCH×2</text>
    </g>
    <g transform="translate(124,110)">
      <circle cx="0" cy="0" r="12" fill="#1a2a3a" stroke="#4060a0" stroke-width="1.5"/>
      <text x="0" y="4" font-family="sans-serif" font-size="8" fill="#a0c0e0" text-anchor="middle">R</text>
    </g>

    <!-- Observer sanity check -->
    <line x1="82" y1="120" x2="82" y2="148" stroke="#3a5030" stroke-width="1" stroke-dasharray="2,3"/>
    <g transform="translate(82,155)">
      <circle cx="0" cy="0" r="12" fill="#1a1a3a" stroke="#5050a0" stroke-width="1.5"/>
      <text x="0" y="4" font-family="sans-serif" font-size="8" fill="#a0a0e0" text-anchor="middle">O</text>
      <text x="0" y="18" font-family="sans-serif" font-size="6" fill="#5050a0" text-anchor="middle">OBS</text>
    </g>
  </g>

  <!-- ============ TEMPLATE 4: Emergency Firefighting ============ -->
  <g transform="translate(552,45)">
    <rect x="0" y="0" width="165" height="180" fill="#1a0800" stroke="#8b2000" stroke-width="2" rx="3"/>
    <rect x="0" y="0" width="165" height="22" fill="#5a1a00"/>
    <text x="82" y="15" font-family="sans-serif" font-size="9" font-weight="bold" fill="#ffb060" text-anchor="middle" letter-spacing="1">EMERGENCY 🔥</text>

    <!-- Dual troubleshooters — parallel, equal level, no coordinator above -->
    <g transform="translate(45,55)">
      <circle cx="0" cy="0" r="16" fill="#6a2000" stroke="#ff6030" stroke-width="2"/>
      <text x="0" y="5" font-family="sans-serif" font-size="10" font-weight="bold" fill="#ffb060" text-anchor="middle">T</text>
      <text x="0" y="-22" font-family="sans-serif" font-size="6" fill="#ff6030" text-anchor="middle">TROUBLESH.</text>
      <text x="0" y="22" font-family="sans-serif" font-size="6" fill="#ff8050" text-anchor="middle">OPUS</text>
    </g>
    <g transform="translate(120,55)">
      <circle cx="0" cy="0" r="16" fill="#6a2000" stroke="#ff6030" stroke-width="2"/>
      <text x="0" y="5" font-family="sans-serif" font-size="10" font-weight="bold" fill="#ffb060" text-anchor="middle">T</text>
      <text x="0" y="22" font-family="sans-serif" font-size="6" fill="#ff8050" text-anchor="middle">OPUS</text>
    </g>

    <!-- Double-headed arrow showing parallel work on same problem -->
    <line x1="62" y1="55" x2="102" y2="55" stroke="#ff6030" stroke-width="2" stroke-dasharray="4,2"/>
    <text x="82" y="45" font-family="sans-serif" font-size="6" fill="#ff6030" text-anchor="middle">PARALLEL</text>

    <!-- Convergence arrows down to implementer -->
    <line x1="55" y1="72" x2="70" y2="110" stroke="#8b2000" stroke-width="1.5"/>
    <line x1="110" y1="72" x2="95" y2="110" stroke="#8b2000" stroke-width="1.5"/>

    <!-- Implementer standby -->
    <g transform="translate(82,122)">
      <circle cx="0" cy="0" r="12" fill="#3a1500" stroke="#c05010" stroke-width="1.5"/>
      <text x="0" y="4" font-family="sans-serif" font-size="8" fill="#e0a080" text-anchor="middle">I</text>
      <text x="0" y="18" font-family="sans-serif" font-size="6" fill="#c05010" text-anchor="middle">STANDBY</text>
    </g>

    <!-- Observer docs -->
    <g transform="translate(82,155)">
      <circle cx="0" cy="0" r="12" fill="#1a1a3a" stroke="#5050a0" stroke-width="1.5"/>
      <text x="0" y="4" font-family="sans-serif" font-size="8" fill="#a0a0e0" text-anchor="middle">O</text>
      <text x="0" y="18" font-family="sans-serif" font-size="6" fill="#5050a0" text-anchor="middle">TIMELINE</text>
    </g>
  </g>

  <!-- ============ TEMPLATE 5: Planning Session ============ -->
  <g transform="translate(730,45)">
    <rect x="0" y="0" width="155" height="180" fill="#0d1a10" stroke="#3a5030" stroke-width="1.5" rx="3"/>
    <rect x="0" y="0" width="155" height="22" fill="#2a4020"/>
    <text x="77" y="15" font-family="sans-serif" font-size="9" font-weight="bold" fill="#a0c080" text-anchor="middle" letter-spacing="1">PLANNING</text>

    <!-- Coordinator at top -->
    <g transform="translate(77,50)">
      <circle cx="0" cy="0" r="14" fill="#1a3a6e" stroke="#6090c0" stroke-width="1.5"/>
      <text x="0" y="5" font-family="sans-serif" font-size="9" font-weight="bold" fill="#e0f0ff" text-anchor="middle">C</text>
    </g>

    <line x1="62" y1="63" x2="35" y2="95" stroke="#3a5030" stroke-width="1" stroke-dasharray="3,2"/>
    <line x1="92" y1="63" x2="119" y2="95" stroke="#3a5030" stroke-width="1" stroke-dasharray="3,2"/>

    <!-- Planner ×2 — competing proposals! -->
    <g transform="translate(35,110)">
      <circle cx="0" cy="0" r="12" fill="#3a1a5a" stroke="#8060a0" stroke-width="1.5"/>
      <text x="0" y="4" font-family="sans-serif" font-size="8" fill="#e0c0ff" text-anchor="middle">P</text>
      <text x="0" y="18" font-family="sans-serif" font-size="6" fill="#8060a0" text-anchor="middle">PLAN×2</text>
    </g>
    <g transform="translate(119,110)">
      <circle cx="0" cy="0" r="12" fill="#3a1a5a" stroke="#8060a0" stroke-width="1.5"/>
      <text x="0" y="4" font-family="sans-serif" font-size="8" fill="#e0c0ff" text-anchor="middle">P</text>
    </g>

    <!-- Competing proposals arrow -->
    <line x1="50" y1="110" x2="105" y2="110" stroke="#8060a0" stroke-width="1" stroke-dasharray="2,2"/>
    <text x="77" y="105" font-family="sans-serif" font-size="5" fill="#8060a0" text-anchor="middle">vs.</text>

    <!-- Researcher support -->
    <g transform="translate(77,155)">
      <circle cx="0" cy="0" r="12" fill="#1a2a3a" stroke="#4060a0" stroke-width="1.5"/>
      <text x="0" y="4" font-family="sans-serif" font-size="8" fill="#a0c0e0" text-anchor="middle">R</text>
      <text x="0" y="18" font-family="sans-serif" font-size="6" fill="#4060a0" text-anchor="middle">SUPPORT</text>
    </g>
  </g>

  <!-- Legend bar at the bottom -->
  <rect x="0" y="238" width="900" height="190" fill="#0d1a10"/>
  <rect x="0" y="238" width="900" height="2" fill="#3a5030"/>
  <text x="450" y="258" font-family="serif" font-size="11" font-weight="bold" fill="#a0c080" text-anchor="middle" letter-spacing="3">ROLE LEGEND</text>

  <!-- Legend entries in a row -->
  <g transform="translate(40, 275)">
    <circle cx="10" cy="10" r="12" fill="#1a3a6e" stroke="#6090c0" stroke-width="1.5"/>
    <text x="10" y="15" font-family="sans-serif" font-size="9" font-weight="bold" fill="#e0f0ff" text-anchor="middle">C</text>
    <text x="10" y="32" font-family="sans-serif" font-size="8" fill="#6090c0" text-anchor="middle">COORDINATOR</text>
    <text x="10" y="42" font-family="sans-serif" font-size="7" fill="#3a5030" text-anchor="middle">opus</text>
  </g>

  <g transform="translate(140, 275)">
    <circle cx="10" cy="10" r="12" fill="#5a1a00" stroke="#c06030" stroke-width="1.5"/>
    <text x="10" y="15" font-family="sans-serif" font-size="9" font-weight="bold" fill="#ffe0c0" text-anchor="middle">I</text>
    <text x="10" y="32" font-family="sans-serif" font-size="8" fill="#c06030" text-anchor="middle">IMPLEMENTER</text>
    <text x="10" y="42" font-family="sans-serif" font-size="7" fill="#3a5030" text-anchor="middle">sonnet</text>
  </g>

  <g transform="translate(240, 275)">
    <circle cx="10" cy="10" r="12" fill="#1a3a1a" stroke="#30a050" stroke-width="1.5"/>
    <text x="10" y="15" font-family="sans-serif" font-size="9" font-weight="bold" fill="#a0e0a0" text-anchor="middle">Q</text>
    <text x="10" y="32" font-family="sans-serif" font-size="8" fill="#30a050" text-anchor="middle">QA-VALIDATOR</text>
    <text x="10" y="42" font-family="sans-serif" font-size="7" fill="#3a5030" text-anchor="middle">sonnet</text>
  </g>

  <g transform="translate(340, 275)">
    <circle cx="10" cy="10" r="12" fill="#6a2000" stroke="#ff6030" stroke-width="2"/>
    <text x="10" y="15" font-family="sans-serif" font-size="9" font-weight="bold" fill="#ffb060" text-anchor="middle">T</text>
    <text x="10" y="32" font-family="sans-serif" font-size="8" fill="#ff6030" text-anchor="middle">TROUBLESHOOTER</text>
    <text x="10" y="42" font-family="sans-serif" font-size="7" fill="#3a5030" text-anchor="middle">opus (emergency)</text>
  </g>

  <g transform="translate(460, 275)">
    <circle cx="10" cy="10" r="12" fill="#3a1a5a" stroke="#8060a0" stroke-width="1.5"/>
    <text x="10" y="15" font-family="sans-serif" font-size="9" font-weight="bold" fill="#e0c0ff" text-anchor="middle">P</text>
    <text x="10" y="32" font-family="sans-serif" font-size="8" fill="#8060a0" text-anchor="middle">PLANNER</text>
    <text x="10" y="42" font-family="sans-serif" font-size="7" fill="#3a5030" text-anchor="middle">opus</text>
  </g>

  <g transform="translate(560, 275)">
    <circle cx="10" cy="10" r="12" fill="#1a2a3a" stroke="#4060a0" stroke-width="1.5"/>
    <text x="10" y="15" font-family="sans-serif" font-size="9" font-weight="bold" fill="#a0c0e0" text-anchor="middle">R</text>
    <text x="10" y="32" font-family="sans-serif" font-size="8" fill="#4060a0" text-anchor="middle">RESEARCHER</text>
    <text x="10" y="42" font-family="sans-serif" font-size="7" fill="#3a5030" text-anchor="middle">sonnet</text>
  </g>

  <g transform="translate(660, 275)">
    <circle cx="10" cy="10" r="12" fill="#1a1a3a" stroke="#5050a0" stroke-width="1.5"/>
    <text x="10" y="15" font-family="sans-serif" font-size="9" font-weight="bold" fill="#a0a0e0" text-anchor="middle">O</text>
    <text x="10" y="32" font-family="sans-serif" font-size="8" fill="#5050a0" text-anchor="middle">OBSERVER</text>
    <text x="10" y="42" font-family="sans-serif" font-size="7" fill="#3a5030" text-anchor="middle">zero-context</text>
  </g>

  <!-- Observer rule callout -->
  <rect x="40" y="340" width="820" height="50" fill="#0a1208" stroke="#2a5030" stroke-width="1" rx="3"/>
  <text x="60" y="358" font-family="serif" font-size="10" font-weight="bold" fill="#a0c080">Observer Rule:</text>
  <text x="60" y="372" font-family="serif" font-size="10" fill="#6a8060">Every built-in template includes an observer. This is not an accident. The observer receives NOTHING from other agents — only the raw artifact</text>
  <text x="60" y="385" font-family="serif" font-size="10" fill="#6a8060">and the original spec. An observation contaminated with prior findings provides no independent signal. It masquerades as verification while providing none.</text>

  <!-- Bottom rule -->
  <rect x="0" y="424" width="900" height="16" fill="#1e2820"/>
  <rect x="0" y="424" width="900" height="1" fill="#3a5030"/>
  <text x="450" y="436" font-family="sans-serif" font-size="8" fill="#3a5030" text-anchor="middle" letter-spacing="3">PICK THE WRONG TEMPLATE AND THE TEAM IS CONFIGURED FOR A DIFFERENT KIND OF WORK THAN YOU ARE DOING</text>

</svg>
